<svg width="42" height="42" viewBox="0 0 42 42" fill="none" xmlns="http://www.w3.org/2000/svg">
<rect x="0.143066" y="0.00146484" width="41.7678" height="41.7678" fill="#E6AF2E"/>
<path d="M24.5147 18.5136C24.5846 18.4215 24.619 18.3057 24.6111 18.1888C24.6033 18.0719 24.5537 17.9622 24.4721 17.881C24.3906 17.7998 24.2827 17.7528 24.1696 17.7493C24.0565 17.7457 23.9461 17.7858 23.8599 17.8618L15.6747 25.0713L11.3523 23.3406C11.1643 23.2661 11.0009 23.1373 10.8815 22.9694C10.7621 22.8016 10.6917 22.6018 10.6788 22.3938C10.6659 22.1858 10.7109 21.9783 10.8085 21.796C10.9061 21.6138 11.0523 21.4643 11.2295 21.3655L29.174 10.9587C29.315 10.88 29.474 10.8425 29.634 10.8501C29.794 10.8577 29.9491 10.9101 30.0826 11.0018C30.216 11.0935 30.323 11.221 30.3919 11.3707C30.4609 11.5203 30.4893 11.6866 30.4742 11.8517L28.9001 28.839C28.8843 29.0132 28.8295 29.1812 28.74 29.3296C28.6505 29.4781 28.5287 29.6028 28.3844 29.694C28.2401 29.7851 28.0773 29.8401 27.9088 29.8547C27.7404 29.8692 27.571 29.8428 27.4142 29.7776L22.1536 27.6689L18.8512 30.8727C18.7293 30.9906 18.5767 31.0689 18.4123 31.098C18.2479 31.1271 18.0788 31.1056 17.9261 31.0362C17.7733 30.9668 17.6436 30.8526 17.5528 30.7077C17.4621 30.5628 17.4144 30.3936 17.4156 30.2209V27.7047L24.5147 18.5136Z" fill="white"/>
</svg>
