<svg width="46" height="44" viewBox="0 0 46 44" fill="none" xmlns="http://www.w3.org/2000/svg">
<g clip-path="url(#clip0_150_80)">
<path fill-rule="evenodd" clip-rule="evenodd" d="M7.54278 36.609C9.67827 36.609 10.7568 39.1824 9.2436 40.6798C7.73044 42.1796 5.13649 41.1107 5.13649 38.994C5.13649 37.6779 6.21491 36.609 7.54278 36.609ZM30.8576 8.21454C34.8531 8.21454 38.0929 11.426 38.0929 15.3859C38.0929 19.3461 34.8529 22.5573 30.8576 22.5573C26.8622 22.5573 23.6224 19.3459 23.6224 15.3859C23.6224 11.4258 26.8624 8.21454 30.8576 8.21454ZM35.0075 11.273C32.7152 9.00093 29.0001 9.00093 26.7099 11.273C24.4176 13.545 24.4176 17.2274 26.7099 19.4973C29.0021 21.7694 32.7173 21.7694 35.0075 19.4973C37.2998 17.2253 37.2998 13.5429 35.0075 11.273ZM46.1432 13.3543C46.1432 12.5067 45.4448 11.8145 44.5896 11.8145H43.0908C42.8342 10.9527 42.4874 10.124 42.0575 9.33991L43.1169 8.28982C43.7227 7.68944 43.7227 6.71233 43.1169 6.11194L40.2189 3.23952C39.6132 2.63914 38.6274 2.63914 38.0216 3.23952L36.9622 4.28962C36.1712 3.86111 35.335 3.51739 34.4656 3.26544V1.77981C34.4656 0.932237 33.7673 0.23999 32.9121 0.23999H28.8121C27.957 0.23999 27.2586 0.932177 27.2586 1.77981V3.26544C26.3891 3.51973 25.553 3.86347 24.762 4.28962L23.7025 3.23952C23.0968 2.63914 22.111 2.63914 21.5052 3.23952L18.6072 6.11194C18.0015 6.71232 18.0015 7.68943 18.6072 8.28982L19.6667 9.33991C19.2344 10.124 18.8876 10.9527 18.6334 11.8145H17.1345C16.2794 11.8145 15.581 12.5066 15.581 13.3543V17.4181C15.581 18.2656 16.2793 18.9579 17.1345 18.9579H18.6334C18.8899 19.8196 19.2344 20.6484 19.6667 21.4324L18.6072 22.4825C18.0015 23.0829 18.0015 24.06 18.6072 24.6604L21.5052 27.5328C22.111 28.1332 23.0968 28.1332 23.7025 27.5328L24.762 26.4827C25.553 26.9112 26.3891 27.255 27.2586 27.5069V28.9925C27.2586 29.8401 27.9569 30.5324 28.8121 30.5324H32.9121C33.7672 30.5324 34.4656 29.8402 34.4656 28.9925V27.5069C35.335 27.2526 36.1712 26.9112 36.9622 26.4827L38.0216 27.5328C38.6274 28.1332 39.6132 28.1332 40.2189 27.5328L43.1169 24.6604C43.7227 24.06 43.7227 23.0829 43.1169 22.4825L42.0575 21.4324C42.4898 20.6484 42.8366 19.8196 43.0908 18.9579H44.5896C45.4448 18.9579 46.1432 18.2657 46.1432 17.4181V13.3543ZM44.7749 17.4181V13.3543C44.7749 13.2554 44.6894 13.1683 44.5873 13.1683H42.5658V13.1659C42.2594 13.1659 41.9791 12.9587 41.9031 12.6503C41.7677 12.1064 41.5895 11.5791 41.3757 11.0658C41.1643 10.5596 40.9149 10.0699 40.6322 9.60128C40.454 9.33758 40.4826 8.97733 40.7177 8.74425L42.1477 7.32684C42.219 7.25621 42.219 7.13613 42.1477 7.0655L39.2497 4.19309C39.1785 4.12245 39.0573 4.12245 38.9861 4.19309L37.556 5.61049C37.3399 5.82474 36.9954 5.87419 36.7199 5.71173C36.2377 5.42449 35.7341 5.17256 35.2139 4.95831C34.7103 4.75111 34.1924 4.57924 33.6603 4.44739C33.3396 4.39088 33.095 4.11305 33.095 3.77871V1.77508C33.095 1.6762 33.0095 1.58908 32.9073 1.58908H28.8073C28.7076 1.58908 28.6197 1.67384 28.6197 1.77508V3.77871H28.6173C28.6173 4.08243 28.4083 4.36026 28.0971 4.43557C27.5484 4.56978 27.0163 4.74636 26.4984 4.95826C25.9877 5.16781 25.4936 5.41503 25.0209 5.69523C24.7549 5.87182 24.3914 5.84356 24.1562 5.61048L22.7262 4.19307C22.6549 4.12244 22.5338 4.12244 22.4625 4.19307L19.5645 7.06549C19.4933 7.13613 19.4933 7.2562 19.5645 7.32683L20.9946 8.74424C21.2107 8.95849 21.263 9.30224 21.0967 9.573C20.8069 10.051 20.5527 10.5478 20.3366 11.0657C20.1275 11.5649 19.9541 12.0782 19.8211 12.6056C19.7641 12.9234 19.4838 13.1659 19.1465 13.1659H17.125C17.0252 13.1659 16.9373 13.2507 16.9373 13.3519V17.4157C16.9373 17.5146 17.0229 17.6017 17.125 17.6017H19.1465V17.6041C19.4529 17.6041 19.7332 17.8113 19.8092 18.1197C19.9446 18.6636 20.1227 19.1909 20.3365 19.7042C20.5479 20.2104 20.7974 20.7001 21.0801 21.1687C21.2582 21.4324 21.2297 21.7927 20.9946 22.0258L19.5645 23.4432C19.4933 23.5138 19.4933 23.6339 19.5645 23.7045L22.4625 26.5769C22.5338 26.6476 22.6549 26.6476 22.7262 26.5769L24.1562 25.1595C24.3724 24.9453 24.7168 24.8958 24.9924 25.0583C25.4746 25.3455 25.9782 25.5974 26.4984 25.8117C27.002 26.0189 27.5198 26.1908 28.0519 26.3226C28.3726 26.3791 28.6173 26.6569 28.6173 26.9913V28.9949C28.6173 29.0938 28.7028 29.1809 28.805 29.1809H32.9049C33.0047 29.1809 33.0926 29.0962 33.0926 28.9949V26.9913H33.095C33.095 26.6876 33.304 26.4097 33.6152 26.3344C34.1639 26.2002 34.696 26.0236 35.2138 25.8117C35.7246 25.6022 36.2186 25.355 36.6914 25.0748C36.9574 24.8982 37.3209 24.9264 37.556 25.1595L38.9861 26.5769C39.0573 26.6476 39.1785 26.6476 39.2497 26.5769L42.1477 23.7045C42.219 23.6339 42.219 23.5138 42.1477 23.4432L40.7177 22.0258C40.5015 21.8115 40.4493 21.4678 40.6156 21.197C40.9054 20.719 41.1595 20.2222 41.3757 19.7043C41.5847 19.2051 41.7581 18.6918 41.8912 18.1644C41.9482 17.8466 42.2285 17.6041 42.5658 17.6041H44.5873C44.687 17.6041 44.7749 17.5193 44.7749 17.4181ZM6.62344 26.4471H3.87035C3.49266 26.4471 3.18623 26.7508 3.18623 27.1252V34.1531C1.894 34.657 1.00562 35.9001 1.00562 37.3175V40.6703C1.00562 42.5421 2.54729 44.0701 4.43571 44.0701H41.7249C43.6134 44.0701 45.155 42.542 45.155 40.6703V37.3175C45.155 35.4457 43.6133 33.9177 41.7249 33.9177H17.8901V27.123C17.8901 26.7487 17.5837 26.4449 17.206 26.4449H14.4529V19.6219C14.4529 19.2476 14.1465 18.9438 13.7688 18.9438H7.31005C6.93236 18.9438 6.62593 19.2476 6.62593 19.6219V26.4449L6.62344 26.4471ZM13.0822 26.4471H7.99162V20.3022H13.0822V26.4471ZM10.8207 27.8033H16.5194V33.9199H10.8207V27.8033ZM9.45248 33.9199H4.55198V27.8033H9.45248V33.9199ZM41.7223 35.276L4.43072 35.2737C3.29764 35.2737 2.36887 36.1943 2.36887 37.3173V40.6701C2.36887 41.7932 3.29764 42.7137 4.43072 42.7137H41.7199C42.853 42.7137 43.7818 41.7932 43.7818 40.6701V37.3173C43.7818 36.1943 42.853 35.2737 41.7199 35.2737L41.7223 35.276ZM38.6129 36.611C40.7484 36.611 41.8269 39.1844 40.3137 40.6818C38.8006 42.1816 36.2066 41.1127 36.2066 38.996C36.2066 37.6799 37.285 36.611 38.6129 36.611ZM39.3469 38.2685C39.7531 38.6711 39.7531 39.321 39.3469 39.7236C38.696 40.3687 37.5748 39.9096 37.5748 38.9961C37.5748 38.0826 38.696 37.6211 39.3469 38.2685ZM30.8455 36.611C32.981 36.611 34.0595 39.1844 32.5464 40.6818C31.0332 42.1816 28.4393 41.1127 28.4393 38.996C28.4393 37.6799 29.5177 36.611 30.8455 36.611ZM31.5795 38.2685C31.9857 38.6711 31.9857 39.321 31.5795 39.7236C30.9287 40.3687 29.8074 39.9096 29.8074 38.9961C29.8074 38.0826 30.9287 37.6211 31.5795 38.2685ZM23.0782 36.611C25.2137 36.611 26.2922 39.1844 24.779 40.6818C23.2658 42.1793 20.6719 41.1127 20.6719 38.996C20.6719 37.6799 21.7503 36.611 23.0782 36.611ZM23.8122 38.2685C24.2184 38.6711 24.2184 39.321 23.8122 39.7236C23.1613 40.3687 22.0401 39.9096 22.0401 38.9961C22.0401 38.0826 23.1613 37.6211 23.8122 38.2685ZM15.3108 36.611C17.4463 36.611 18.5248 39.1844 17.0116 40.6818C15.4985 42.1816 12.9045 41.1127 12.9045 38.996C12.9045 37.6799 13.9829 36.611 15.3108 36.611ZM16.0448 38.2685C16.451 38.6711 16.451 39.321 16.0448 39.7236C15.3939 40.3687 14.2727 39.9096 14.2727 38.9961C14.2727 38.0826 15.3939 37.6211 16.0448 38.2685ZM8.27743 38.2685C7.62657 37.6234 6.50534 38.0825 6.50534 38.996C6.50534 39.9095 7.62657 40.371 8.27743 39.7235C8.68363 39.3209 8.68363 38.6712 8.27743 38.2685Z" fill="#E6AF2E"/>
</g>
<defs>
<clipPath id="clip0_150_80">
<rect width="45" height="44" fill="white" transform="translate(0.935059)"/>
</clipPath>
</defs>
</svg>
