<svg width="44" height="53" viewBox="0 0 44 53" fill="none" xmlns="http://www.w3.org/2000/svg">
<g clip-path="url(#clip0_150_69)">
<path d="M32.0223 22.6989C30.9965 21.5337 29.7904 20.5533 28.4392 19.7847C26.3316 18.5845 23.9236 17.9515 21.4783 17.9515C13.7629 17.9515 7.48794 24.1765 7.48794 31.8259C7.48794 39.4773 13.765 45.7003 21.4783 45.7003C24.2283 45.7003 26.8869 44.9131 29.1708 43.4211C30.8536 42.3216 32.3021 40.846 33.3569 39.1566C34.7413 36.9658 35.4749 34.4317 35.4749 31.8256C35.4749 29.4909 34.878 27.1809 33.7507 25.1486C33.2657 24.2772 32.6855 23.453 32.0223 22.7009L32.0223 22.6989ZM31.9871 38.308C31.0524 39.8062 29.7717 41.1112 28.2838 42.0833C26.2653 43.4027 23.9111 44.0994 21.4804 44.0994C14.6563 44.0994 9.10231 38.5935 9.10231 31.826C9.10231 25.0585 14.6542 19.5526 21.4804 19.5526C23.6439 19.5526 25.7743 20.1137 27.6371 21.1741C28.8328 21.8544 29.9001 22.7237 30.8078 23.7533C31.3943 24.4192 31.9082 25.1488 32.3372 25.9195C33.3339 27.7178 33.8603 29.7606 33.8603 31.8263C33.8603 34.1301 33.2137 36.3723 31.987 38.3102L31.9871 38.308ZM41.1942 27.463L40.7881 27.4363C39.8679 27.3746 39.0618 26.756 38.7344 25.8599C38.4981 25.2146 38.2225 24.5775 37.9158 23.9651C37.4909 23.1183 37.636 22.0969 38.2826 21.3612L38.5292 21.0817C39.2089 20.311 39.1695 19.1375 38.438 18.4141L35 15.0045C34.2705 14.2811 33.0892 14.2421 32.3101 14.9141L31.9329 15.2409C31.2096 15.8656 30.1652 16.0013 29.2679 15.5841C28.7125 15.3272 28.1405 15.0949 27.5665 14.8935C26.6257 14.5647 25.975 13.7344 25.9107 12.7767L25.8755 12.2712C25.8071 11.2497 24.9429 10.4482 23.9088 10.4482H19.0471C18.013 10.4482 17.1509 11.2497 17.0805 12.2712L17.0452 12.7767C16.981 13.7344 16.3303 14.5668 15.3894 14.8935C14.8134 15.0949 14.2413 15.3272 13.6881 15.5841C12.7907 16.0013 11.7442 15.8656 11.0231 15.2409L10.6459 14.9141C9.86878 14.24 8.68546 14.2791 7.95599 15.0045L4.51796 18.4141C3.78643 19.1375 3.74706 20.311 4.42678 21.0817L4.67338 21.3612C5.32205 22.0969 5.46502 23.1183 5.04019 23.9651C4.73349 24.5775 4.45577 25.2146 4.2216 25.8599C3.89417 26.756 3.08804 27.3725 2.1679 27.4342L1.76173 27.4609C0.731777 27.5308 -0.076416 28.3878 -0.076416 29.4113V34.2327C-0.076416 35.2562 0.731777 36.1132 1.76173 36.1831L1.98761 36.1974C2.9347 36.2611 3.7491 36.9023 4.06412 37.8313C4.29415 38.5157 4.56977 39.1939 4.88271 39.8433C5.29718 40.7106 5.17077 41.7197 4.55942 42.4143L4.42887 42.5623C3.74917 43.333 3.7906 44.5044 4.52005 45.2299L7.95808 48.6394C8.68755 49.3629 9.87087 49.4039 10.6459 48.7299L10.7019 48.6805C11.4148 48.0619 12.4468 47.9428 13.3316 48.3784C14.0031 48.7093 14.7014 49.0012 15.404 49.2436C16.3573 49.5745 17.0142 50.4089 17.0805 51.3687C17.1489 52.3901 18.0131 53.1916 19.0471 53.1916H23.9089C24.943 53.1916 25.8051 52.3901 25.8755 51.3687C25.9418 50.409 26.5988 49.5745 27.5521 49.2416C28.2587 48.995 28.9571 48.7052 29.6244 48.3764C30.5093 47.9407 31.5413 48.0599 32.2542 48.6764L32.3101 48.7258C33.0872 49.3998 34.2705 49.3587 35 48.6353L38.438 45.2258C39.1696 44.5024 39.2089 43.3288 38.5292 42.5582L38.4007 42.4123C37.7894 41.7176 37.6609 40.7085 38.0775 39.8413C38.3904 39.1857 38.666 38.5095 38.894 37.8293C39.209 36.8983 40.0234 36.257 40.9705 36.1933L41.1943 36.1789C42.2242 36.1091 43.0324 35.2541 43.0324 34.2286V29.4072C43.0324 28.3837 42.2242 27.5267 41.1943 27.4568L41.1942 27.463ZM41.418 34.2347C41.418 34.4197 41.2709 34.5759 41.0844 34.5882L40.8606 34.6026C39.2587 34.7095 37.8847 35.7782 37.3624 37.3277C37.1531 37.9484 36.9024 38.565 36.6185 39.163C35.9284 40.6058 36.1501 42.2971 37.1842 43.4727L37.3127 43.6186C37.4371 43.7584 37.4288 43.9701 37.2962 44.1016L33.8581 47.5111C33.7255 47.6427 33.51 47.6488 33.3711 47.5276L33.3152 47.4783C32.1091 46.4322 30.3786 46.2246 28.9073 46.948C28.298 47.2481 27.6639 47.5132 27.0194 47.7372C25.4568 48.2797 24.3751 49.665 24.2673 51.2659C24.2549 51.4509 24.0994 51.5968 23.9109 51.5968H19.0491C18.8626 51.5968 18.7051 51.4509 18.6927 51.2659C18.5829 49.667 17.5032 48.2818 15.9406 47.7372C15.3003 47.5153 14.6641 47.2501 14.0506 46.948C13.4683 46.6603 12.8446 46.5205 12.229 46.5205C11.2903 46.5205 10.3722 46.8473 9.64483 47.4762L9.58888 47.5255C9.44796 47.6488 9.23451 47.6406 9.10188 47.5091L5.66385 44.0995C5.53122 43.968 5.52293 43.7563 5.64727 43.6166L5.77783 43.4686C6.81191 42.2951 7.03367 40.6017 6.34357 39.1589C6.05966 38.565 5.80891 37.9484 5.59756 37.3236C5.07532 35.7761 3.70344 34.7074 2.10154 34.6005L1.87565 34.5861C1.68914 34.5738 1.542 34.4176 1.542 34.2327V29.4112C1.542 29.2262 1.68914 29.07 1.87565 29.0577L2.28183 29.031C3.84023 28.9262 5.19762 27.8966 5.74262 26.4045C5.95814 25.8167 6.2089 25.2351 6.48864 24.6761C7.20569 23.2477 6.97149 21.5316 5.8918 20.3068L5.6452 20.0273C5.52085 19.8875 5.52914 19.6758 5.66177 19.5443L9.09981 16.1348C9.23244 16.0032 9.44588 15.9971 9.58681 16.1183L9.96397 16.4451C11.168 17.4891 12.9005 17.7193 14.376 17.0329C14.8796 16.7986 15.4018 16.5869 15.9261 16.404C17.4762 15.8635 18.5476 14.4824 18.6574 12.8855L18.6927 12.3779C18.7051 12.193 18.8605 12.047 19.0491 12.047H23.9108C24.0974 12.047 24.2549 12.193 24.2673 12.3779L24.3025 12.8835C24.4103 14.4804 25.4838 15.8615 27.0338 16.4019C27.5561 16.5849 28.0783 16.7965 28.584 17.0308C30.0595 17.7173 31.792 17.4871 32.996 16.443L33.3732 16.1163C33.5141 15.995 33.7275 16.0012 33.8602 16.1327L37.2982 19.5422C37.4308 19.6738 37.437 19.8855 37.3148 20.0273L37.0702 20.3068C35.9905 21.5316 35.7563 23.2477 36.4734 24.6761C36.7532 25.2351 37.0039 25.8167 37.2194 26.4045C37.7644 27.8945 39.1239 28.9262 40.6823 29.031L41.0885 29.0577C41.275 29.0701 41.4221 29.2262 41.4221 29.4112V34.2327L41.418 34.2347ZM30.3228 27.5266C30.3041 27.4794 30.2834 27.4342 30.2564 27.391C30.2419 27.3684 30.2295 27.3499 30.2129 27.3293C30.1818 27.2903 30.1466 27.2533 30.1093 27.2204C30.0907 27.204 30.0762 27.1875 30.0554 27.1731C30.0471 27.167 30.0409 27.1588 30.0306 27.1526C29.9788 27.1177 29.9249 27.0909 29.8668 27.0683C29.8648 27.0683 29.8627 27.0663 29.8606 27.0642H29.8586C29.8565 27.0642 29.8544 27.0622 29.8523 27.0622L21.764 23.9938C21.5775 23.9239 21.3724 23.9239 21.188 23.9938L13.0997 27.0622C13.0976 27.0622 13.0955 27.0642 13.0914 27.0642C13.0914 27.0642 13.0893 27.0642 13.0893 27.0663C13.0313 27.0889 12.9753 27.1177 12.9214 27.1526C12.9131 27.1588 12.9069 27.167 12.8966 27.1731C12.8779 27.1875 12.8613 27.204 12.8427 27.2204C12.8054 27.2554 12.7701 27.2903 12.7391 27.3293C12.7246 27.3499 12.7101 27.3704 12.6955 27.391C12.6686 27.4342 12.6479 27.4794 12.6292 27.5266C12.6209 27.5472 12.6106 27.5677 12.6044 27.5903C12.5836 27.6602 12.5712 27.7342 12.5712 27.8102V35.8399C12.5712 36.1708 12.7784 36.4688 13.0893 36.588L21.1861 39.6584C21.1964 39.6625 21.2089 39.6646 21.2192 39.6687C21.2337 39.6728 21.2482 39.6769 21.2628 39.681C21.3332 39.6995 21.4037 39.7119 21.4741 39.7119C21.5446 39.7119 21.6171 39.6995 21.6855 39.681C21.7 39.6769 21.7145 39.6728 21.729 39.6687C21.7394 39.6646 21.7518 39.6625 21.7622 39.6584L29.8569 36.588C30.1698 36.4688 30.3749 36.1729 30.3749 35.8399V27.8102C30.3749 27.7342 30.3625 27.6623 30.3418 27.5903C30.3356 27.5677 30.3252 27.5472 30.3169 27.5266L30.3228 27.5266ZM21.4801 25.5948L27.3179 27.8102L21.4801 30.0257L15.6422 27.8102L21.4801 25.5948ZM14.1918 28.9714L20.6742 31.4315V37.7471L14.1918 35.287V28.9714ZM28.7689 35.287L22.2864 37.7471V31.4315L28.7689 28.9714V35.287Z" fill="#E6AF2E"/>
</g>
<defs>
<clipPath id="clip0_150_69">
<rect width="43" height="53" fill="white" transform="translate(0.101318)"/>
</clipPath>
</defs>
</svg>
