<svg width="37" height="41" viewBox="0 0 37 41" fill="none" xmlns="http://www.w3.org/2000/svg">
<g clip-path="url(#clip0_150_76)">
<mask id="path-1-outside-1_150_76" maskUnits="userSpaceOnUse" x="-0.853027" y="2.03833" width="38" height="37" fill="black">
<rect fill="white" x="-0.853027" y="2.03833" width="38" height="37"/>
<path fill-rule="evenodd" clip-rule="evenodd" d="M11.8343 29.0388C11.8507 29.0323 11.8671 29.0274 11.8835 29.0225C13.2654 28.548 14.3689 27.6022 15.055 26.4207C15.8098 25.1239 16.0653 23.5394 15.6428 21.9758C15.2236 20.4238 14.215 19.1839 12.9215 18.4347L12.8937 18.4201C12.576 18.238 12.2404 18.0853 11.8916 17.9634C11.8687 17.9569 11.8458 17.9488 11.8229 17.9406C10.7668 17.588 9.59933 17.5278 8.44174 17.8301L8.39098 17.8431C8.29765 17.8675 8.20596 17.8951 8.11591 17.9244C8.10117 17.9293 8.0848 17.9358 8.07006 17.939C6.65866 18.407 5.5338 19.3626 4.83464 20.5636C4.08472 21.854 3.82769 23.4271 4.24027 24.9806L4.25337 25.031C4.67907 26.5814 5.69423 27.8164 6.9943 28.5624C7.3316 28.7558 7.68688 28.915 8.05696 29.0402C8.08152 29.0467 8.10608 29.0548 8.13064 29.0645C9.17691 29.4009 10.3296 29.4513 11.4725 29.1474C11.5953 29.1133 11.7164 29.0778 11.8343 29.0388ZM30.6639 33.6185C30.3741 33.6185 30.1399 33.3861 30.1399 33.0984C30.1399 32.8108 30.3741 32.5784 30.6639 32.5784H32.9349C33.2247 32.5784 33.4588 32.8108 33.4588 33.0984C33.4588 33.3861 33.2247 33.6185 32.9349 33.6185H30.6639ZM30.6639 29.7555C30.3741 29.7555 30.1399 29.5231 30.1399 29.2355C30.1399 28.9478 30.3741 28.7155 30.6639 28.7155H32.9349C33.2247 28.7155 33.4588 28.9478 33.4588 29.2355C33.4588 29.5231 33.2247 29.7555 32.9349 29.7555H30.6639ZM30.6639 25.8926C30.3741 25.8926 30.1399 25.6602 30.1399 25.3725C30.1399 25.0849 30.3741 24.8525 30.6639 24.8525H32.9349C33.2247 24.8525 33.4588 25.0849 33.4588 25.3725C33.4588 25.6602 33.2247 25.8926 32.9349 25.8926H30.6639ZM30.6639 22.028C30.3741 22.028 30.1399 21.7956 30.1399 21.508C30.1399 21.2203 30.3741 20.9879 30.6639 20.9879H32.9349C33.2247 20.9879 33.4588 21.2203 33.4588 21.508C33.4588 21.7956 33.2247 22.028 32.9349 22.028H30.6639ZM30.6639 18.1651C30.3741 18.1651 30.1399 17.9327 30.1399 17.645C30.1399 17.3574 30.3741 17.125 30.6639 17.125H32.9349C33.2247 17.125 33.4588 17.3574 33.4588 17.645C33.4588 17.9327 33.2247 18.1651 32.9349 18.1651H30.6639ZM30.6639 14.3021C30.3741 14.3021 30.1399 14.0697 30.1399 13.7821C30.1399 13.4944 30.3741 13.2621 30.6639 13.2621H32.9349C33.2247 13.2621 33.4588 13.4944 33.4588 13.7821C33.4588 14.0697 33.2247 14.3021 32.9349 14.3021H30.6639ZM15.3792 33.6185C15.0894 33.6185 14.8552 33.3861 14.8552 33.0985C14.8552 32.8108 15.0894 32.5784 15.3792 32.5784H28.3157C28.6055 32.5784 28.8397 32.8108 28.8397 33.0985C28.8397 33.3861 28.6055 33.6185 28.3157 33.6185H15.3792ZM16.4991 29.7556C16.2093 29.7556 15.9752 29.5232 15.9752 29.2355C15.9752 28.9479 16.2093 28.7155 16.4991 28.7155H28.3157C28.6055 28.7155 28.8396 28.9479 28.8396 29.2355C28.8396 29.5232 28.6055 29.7556 28.3157 29.7556H16.4991ZM15.3792 14.3021C15.0894 14.3021 14.8552 14.0697 14.8552 13.782C14.8552 13.4944 15.0894 13.262 15.3792 13.262H28.3157C28.6055 13.262 28.8397 13.4944 28.8397 13.782C28.8397 14.0697 28.6055 14.3021 28.3157 14.3021H15.3792ZM18.4738 25.8357C18.1856 25.8341 17.9531 25.6017 17.9547 25.3157C17.9563 25.0297 18.1905 24.7989 18.4787 24.7989L28.3193 24.8541C28.6075 24.8558 28.84 25.0882 28.84 25.3742C28.8383 25.6602 28.6042 25.891 28.316 25.8893L18.4738 25.8357ZM18.4476 22.0281C18.1577 22.0281 17.9236 21.7957 17.9236 21.508C17.9236 21.2204 18.1577 20.988 18.4476 20.988H28.3175C28.6073 20.988 28.8415 21.2204 28.8415 21.508C28.8415 21.7957 28.6073 22.0281 28.3175 22.0281H18.4476ZM16.3845 18.1651C16.0947 18.1651 15.8605 17.9327 15.8605 17.6451C15.8605 17.3574 16.0947 17.125 16.3845 17.125H28.3176C28.6074 17.125 28.8415 17.3574 28.8415 17.6451C28.8415 17.9327 28.6074 18.1651 28.3176 18.1651H16.3845ZM8.45481 30.2251V33.6102H11.5035L11.5052 30.2088C10.4703 30.4461 9.43229 30.4396 8.45481 30.2251ZM11.5052 34.6504H7.93085C7.64104 34.6504 7.4069 34.418 7.4069 34.1304V29.9085C7.23826 29.8418 7.07125 29.7687 6.90752 29.6907L6.06265 31.1436C6.33773 31.4101 6.52931 31.7432 6.62592 32.1008C6.7651 32.6176 6.70615 33.188 6.41634 33.6885L4.08313 37.7009C3.79168 38.1999 3.3234 38.5363 2.80108 38.6744C2.29188 38.8093 1.73025 38.7573 1.23413 38.4842L1.19975 38.4647C0.69709 38.1755 0.358157 37.7107 0.218995 37.1923C0.0830949 36.6869 0.13549 36.1294 0.410564 35.637L0.428575 35.6013L2.76179 31.5905C3.05324 31.0915 3.52152 30.7551 4.04384 30.617C4.40406 30.5211 4.78881 30.5195 5.16052 30.6235L6.00865 29.1658C4.69551 28.2704 3.68361 26.9215 3.23989 25.2736L3.23825 25.2655C2.7454 23.4307 3.04668 21.5683 3.93578 20.0422C4.70204 18.7242 5.9055 17.6565 7.41024 17.0715L7.40697 3.64776H7.4086C7.4086 3.36336 7.64111 3.13096 7.92765 3.12934L29.8108 3.03833C30.099 3.03833 30.3331 3.27072 30.3331 3.55675L30.3396 7.1499H36.2867C36.5765 7.1499 36.8106 7.38229 36.8106 7.66994V38.151C36.8106 38.4386 36.5765 38.671 36.2867 38.671H12.0278C11.738 38.671 11.5038 38.4386 11.5038 38.151V34.6504L11.5052 34.6504ZM29.2964 7.14983L29.2915 4.07672L8.45463 4.16448V16.7578C9.49109 16.5319 10.5275 16.5481 11.5034 16.7724L11.505 11.6307V11.5624L11.5066 11.5559V11.5494L11.5083 11.5429C11.5115 11.525 11.5165 11.5055 11.5214 11.4877C11.5263 11.4714 11.5312 11.4568 11.5377 11.4405V11.4389L11.5427 11.4275L11.5443 11.4226L11.5508 11.4129L11.5541 11.4064L11.5574 11.4015L11.5639 11.3901L11.5672 11.3853L11.5738 11.3739L11.5967 11.3398L11.6081 11.3235L11.6147 11.3138L11.6196 11.3089C11.6343 11.2926 11.6491 11.2764 11.6638 11.2601L15.6737 7.2802L15.6769 7.27858L15.6835 7.27208L15.69 7.26883L15.695 7.26558L15.6966 7.26395L15.6999 7.26233L15.7048 7.25908L15.7064 7.25745L15.7097 7.25583L15.7146 7.25257L15.7195 7.2477L15.7244 7.24445L15.7293 7.23957L15.7343 7.23632H15.7359L15.7457 7.22982H15.7474L15.7916 7.20057L15.7965 7.19895L15.803 7.1957L15.8079 7.19407H15.8096L15.821 7.1892H15.8227L15.8292 7.18757L15.8341 7.18595H15.8358L15.8423 7.18432L15.8472 7.18269H15.8489L15.8554 7.18107L15.8587 7.17944H15.8603L15.8669 7.17782L15.8702 7.17619H15.8734L15.88 7.17457L15.8865 7.17132L15.8931 7.16969L15.8964 7.16807H15.8996L15.9062 7.16644H15.9127L15.9193 7.16482H15.9209L15.9242 7.16319L15.9307 7.16157H15.9373L15.9438 7.15994H16.011L29.2963 7.15832L29.2964 7.14983ZM12.5531 29.8823C14.0267 29.2923 15.2056 28.236 15.9604 26.9375C16.8495 25.4099 17.1507 23.5459 16.6546 21.708C16.1617 19.883 14.9747 18.4253 13.4487 17.541L13.4192 17.5232C13.1409 17.3639 12.851 17.2225 12.5531 17.1023V12.1523H16.0209C16.3108 12.1523 16.5449 11.9199 16.5449 11.6323V8.19026H35.7643V37.6312H12.5532L12.5531 29.8823ZM5.09997 31.7121C4.85273 31.5789 4.57111 31.5529 4.31241 31.6228C4.04879 31.6926 3.81138 31.8616 3.66564 32.1135L1.31931 36.1455C1.18504 36.3909 1.16048 36.6704 1.22925 36.9255C1.29966 37.1872 1.46994 37.4228 1.72374 37.5675L1.74666 37.5805C1.9939 37.7137 2.27551 37.7381 2.53259 37.6699C2.7962 37.6 3.03361 37.431 3.17935 37.1791L5.51257 33.1699C5.65829 32.9196 5.68776 32.6303 5.61572 32.3671C5.54531 32.1054 5.37503 31.8698 5.12123 31.7251L5.09997 31.7121ZM15.4956 8.92479L13.2933 11.1106H15.4956V8.92479Z"/>
</mask>
<path fill-rule="evenodd" clip-rule="evenodd" d="M11.8343 29.0388C11.8507 29.0323 11.8671 29.0274 11.8835 29.0225C13.2654 28.548 14.3689 27.6022 15.055 26.4207C15.8098 25.1239 16.0653 23.5394 15.6428 21.9758C15.2236 20.4238 14.215 19.1839 12.9215 18.4347L12.8937 18.4201C12.576 18.238 12.2404 18.0853 11.8916 17.9634C11.8687 17.9569 11.8458 17.9488 11.8229 17.9406C10.7668 17.588 9.59933 17.5278 8.44174 17.8301L8.39098 17.8431C8.29765 17.8675 8.20596 17.8951 8.11591 17.9244C8.10117 17.9293 8.0848 17.9358 8.07006 17.939C6.65866 18.407 5.5338 19.3626 4.83464 20.5636C4.08472 21.854 3.82769 23.4271 4.24027 24.9806L4.25337 25.031C4.67907 26.5814 5.69423 27.8164 6.9943 28.5624C7.3316 28.7558 7.68688 28.915 8.05696 29.0402C8.08152 29.0467 8.10608 29.0548 8.13064 29.0645C9.17691 29.4009 10.3296 29.4513 11.4725 29.1474C11.5953 29.1133 11.7164 29.0778 11.8343 29.0388ZM30.6639 33.6185C30.3741 33.6185 30.1399 33.3861 30.1399 33.0984C30.1399 32.8108 30.3741 32.5784 30.6639 32.5784H32.9349C33.2247 32.5784 33.4588 32.8108 33.4588 33.0984C33.4588 33.3861 33.2247 33.6185 32.9349 33.6185H30.6639ZM30.6639 29.7555C30.3741 29.7555 30.1399 29.5231 30.1399 29.2355C30.1399 28.9478 30.3741 28.7155 30.6639 28.7155H32.9349C33.2247 28.7155 33.4588 28.9478 33.4588 29.2355C33.4588 29.5231 33.2247 29.7555 32.9349 29.7555H30.6639ZM30.6639 25.8926C30.3741 25.8926 30.1399 25.6602 30.1399 25.3725C30.1399 25.0849 30.3741 24.8525 30.6639 24.8525H32.9349C33.2247 24.8525 33.4588 25.0849 33.4588 25.3725C33.4588 25.6602 33.2247 25.8926 32.9349 25.8926H30.6639ZM30.6639 22.028C30.3741 22.028 30.1399 21.7956 30.1399 21.508C30.1399 21.2203 30.3741 20.9879 30.6639 20.9879H32.9349C33.2247 20.9879 33.4588 21.2203 33.4588 21.508C33.4588 21.7956 33.2247 22.028 32.9349 22.028H30.6639ZM30.6639 18.1651C30.3741 18.1651 30.1399 17.9327 30.1399 17.645C30.1399 17.3574 30.3741 17.125 30.6639 17.125H32.9349C33.2247 17.125 33.4588 17.3574 33.4588 17.645C33.4588 17.9327 33.2247 18.1651 32.9349 18.1651H30.6639ZM30.6639 14.3021C30.3741 14.3021 30.1399 14.0697 30.1399 13.7821C30.1399 13.4944 30.3741 13.2621 30.6639 13.2621H32.9349C33.2247 13.2621 33.4588 13.4944 33.4588 13.7821C33.4588 14.0697 33.2247 14.3021 32.9349 14.3021H30.6639ZM15.3792 33.6185C15.0894 33.6185 14.8552 33.3861 14.8552 33.0985C14.8552 32.8108 15.0894 32.5784 15.3792 32.5784H28.3157C28.6055 32.5784 28.8397 32.8108 28.8397 33.0985C28.8397 33.3861 28.6055 33.6185 28.3157 33.6185H15.3792ZM16.4991 29.7556C16.2093 29.7556 15.9752 29.5232 15.9752 29.2355C15.9752 28.9479 16.2093 28.7155 16.4991 28.7155H28.3157C28.6055 28.7155 28.8396 28.9479 28.8396 29.2355C28.8396 29.5232 28.6055 29.7556 28.3157 29.7556H16.4991ZM15.3792 14.3021C15.0894 14.3021 14.8552 14.0697 14.8552 13.782C14.8552 13.4944 15.0894 13.262 15.3792 13.262H28.3157C28.6055 13.262 28.8397 13.4944 28.8397 13.782C28.8397 14.0697 28.6055 14.3021 28.3157 14.3021H15.3792ZM18.4738 25.8357C18.1856 25.8341 17.9531 25.6017 17.9547 25.3157C17.9563 25.0297 18.1905 24.7989 18.4787 24.7989L28.3193 24.8541C28.6075 24.8558 28.84 25.0882 28.84 25.3742C28.8383 25.6602 28.6042 25.891 28.316 25.8893L18.4738 25.8357ZM18.4476 22.0281C18.1577 22.0281 17.9236 21.7957 17.9236 21.508C17.9236 21.2204 18.1577 20.988 18.4476 20.988H28.3175C28.6073 20.988 28.8415 21.2204 28.8415 21.508C28.8415 21.7957 28.6073 22.0281 28.3175 22.0281H18.4476ZM16.3845 18.1651C16.0947 18.1651 15.8605 17.9327 15.8605 17.6451C15.8605 17.3574 16.0947 17.125 16.3845 17.125H28.3176C28.6074 17.125 28.8415 17.3574 28.8415 17.6451C28.8415 17.9327 28.6074 18.1651 28.3176 18.1651H16.3845ZM8.45481 30.2251V33.6102H11.5035L11.5052 30.2088C10.4703 30.4461 9.43229 30.4396 8.45481 30.2251ZM11.5052 34.6504H7.93085C7.64104 34.6504 7.4069 34.418 7.4069 34.1304V29.9085C7.23826 29.8418 7.07125 29.7687 6.90752 29.6907L6.06265 31.1436C6.33773 31.4101 6.52931 31.7432 6.62592 32.1008C6.7651 32.6176 6.70615 33.188 6.41634 33.6885L4.08313 37.7009C3.79168 38.1999 3.3234 38.5363 2.80108 38.6744C2.29188 38.8093 1.73025 38.7573 1.23413 38.4842L1.19975 38.4647C0.69709 38.1755 0.358157 37.7107 0.218995 37.1923C0.0830949 36.6869 0.13549 36.1294 0.410564 35.637L0.428575 35.6013L2.76179 31.5905C3.05324 31.0915 3.52152 30.7551 4.04384 30.617C4.40406 30.5211 4.78881 30.5195 5.16052 30.6235L6.00865 29.1658C4.69551 28.2704 3.68361 26.9215 3.23989 25.2736L3.23825 25.2655C2.7454 23.4307 3.04668 21.5683 3.93578 20.0422C4.70204 18.7242 5.9055 17.6565 7.41024 17.0715L7.40697 3.64776H7.4086C7.4086 3.36336 7.64111 3.13096 7.92765 3.12934L29.8108 3.03833C30.099 3.03833 30.3331 3.27072 30.3331 3.55675L30.3396 7.1499H36.2867C36.5765 7.1499 36.8106 7.38229 36.8106 7.66994V38.151C36.8106 38.4386 36.5765 38.671 36.2867 38.671H12.0278C11.738 38.671 11.5038 38.4386 11.5038 38.151V34.6504L11.5052 34.6504ZM29.2964 7.14983L29.2915 4.07672L8.45463 4.16448V16.7578C9.49109 16.5319 10.5275 16.5481 11.5034 16.7724L11.505 11.6307V11.5624L11.5066 11.5559V11.5494L11.5083 11.5429C11.5115 11.525 11.5165 11.5055 11.5214 11.4877C11.5263 11.4714 11.5312 11.4568 11.5377 11.4405V11.4389L11.5427 11.4275L11.5443 11.4226L11.5508 11.4129L11.5541 11.4064L11.5574 11.4015L11.5639 11.3901L11.5672 11.3853L11.5738 11.3739L11.5967 11.3398L11.6081 11.3235L11.6147 11.3138L11.6196 11.3089C11.6343 11.2926 11.6491 11.2764 11.6638 11.2601L15.6737 7.2802L15.6769 7.27858L15.6835 7.27208L15.69 7.26883L15.695 7.26558L15.6966 7.26395L15.6999 7.26233L15.7048 7.25908L15.7064 7.25745L15.7097 7.25583L15.7146 7.25257L15.7195 7.2477L15.7244 7.24445L15.7293 7.23957L15.7343 7.23632H15.7359L15.7457 7.22982H15.7474L15.7916 7.20057L15.7965 7.19895L15.803 7.1957L15.8079 7.19407H15.8096L15.821 7.1892H15.8227L15.8292 7.18757L15.8341 7.18595H15.8358L15.8423 7.18432L15.8472 7.18269H15.8489L15.8554 7.18107L15.8587 7.17944H15.8603L15.8669 7.17782L15.8702 7.17619H15.8734L15.88 7.17457L15.8865 7.17132L15.8931 7.16969L15.8964 7.16807H15.8996L15.9062 7.16644H15.9127L15.9193 7.16482H15.9209L15.9242 7.16319L15.9307 7.16157H15.9373L15.9438 7.15994H16.011L29.2963 7.15832L29.2964 7.14983ZM12.5531 29.8823C14.0267 29.2923 15.2056 28.236 15.9604 26.9375C16.8495 25.4099 17.1507 23.5459 16.6546 21.708C16.1617 19.883 14.9747 18.4253 13.4487 17.541L13.4192 17.5232C13.1409 17.3639 12.851 17.2225 12.5531 17.1023V12.1523H16.0209C16.3108 12.1523 16.5449 11.9199 16.5449 11.6323V8.19026H35.7643V37.6312H12.5532L12.5531 29.8823ZM5.09997 31.7121C4.85273 31.5789 4.57111 31.5529 4.31241 31.6228C4.04879 31.6926 3.81138 31.8616 3.66564 32.1135L1.31931 36.1455C1.18504 36.3909 1.16048 36.6704 1.22925 36.9255C1.29966 37.1872 1.46994 37.4228 1.72374 37.5675L1.74666 37.5805C1.9939 37.7137 2.27551 37.7381 2.53259 37.6699C2.7962 37.6 3.03361 37.431 3.17935 37.1791L5.51257 33.1699C5.65829 32.9196 5.68776 32.6303 5.61572 32.3671C5.54531 32.1054 5.37503 31.8698 5.12123 31.7251L5.09997 31.7121ZM15.4956 8.92479L13.2933 11.1106H15.4956V8.92479Z" fill="#E6AF2E"/>
<path fill-rule="evenodd" clip-rule="evenodd" d="M11.8343 29.0388C11.8507 29.0323 11.8671 29.0274 11.8835 29.0225C13.2654 28.548 14.3689 27.6022 15.055 26.4207C15.8098 25.1239 16.0653 23.5394 15.6428 21.9758C15.2236 20.4238 14.215 19.1839 12.9215 18.4347L12.8937 18.4201C12.576 18.238 12.2404 18.0853 11.8916 17.9634C11.8687 17.9569 11.8458 17.9488 11.8229 17.9406C10.7668 17.588 9.59933 17.5278 8.44174 17.8301L8.39098 17.8431C8.29765 17.8675 8.20596 17.8951 8.11591 17.9244C8.10117 17.9293 8.0848 17.9358 8.07006 17.939C6.65866 18.407 5.5338 19.3626 4.83464 20.5636C4.08472 21.854 3.82769 23.4271 4.24027 24.9806L4.25337 25.031C4.67907 26.5814 5.69423 27.8164 6.9943 28.5624C7.3316 28.7558 7.68688 28.915 8.05696 29.0402C8.08152 29.0467 8.10608 29.0548 8.13064 29.0645C9.17691 29.4009 10.3296 29.4513 11.4725 29.1474C11.5953 29.1133 11.7164 29.0778 11.8343 29.0388ZM30.6639 33.6185C30.3741 33.6185 30.1399 33.3861 30.1399 33.0984C30.1399 32.8108 30.3741 32.5784 30.6639 32.5784H32.9349C33.2247 32.5784 33.4588 32.8108 33.4588 33.0984C33.4588 33.3861 33.2247 33.6185 32.9349 33.6185H30.6639ZM30.6639 29.7555C30.3741 29.7555 30.1399 29.5231 30.1399 29.2355C30.1399 28.9478 30.3741 28.7155 30.6639 28.7155H32.9349C33.2247 28.7155 33.4588 28.9478 33.4588 29.2355C33.4588 29.5231 33.2247 29.7555 32.9349 29.7555H30.6639ZM30.6639 25.8926C30.3741 25.8926 30.1399 25.6602 30.1399 25.3725C30.1399 25.0849 30.3741 24.8525 30.6639 24.8525H32.9349C33.2247 24.8525 33.4588 25.0849 33.4588 25.3725C33.4588 25.6602 33.2247 25.8926 32.9349 25.8926H30.6639ZM30.6639 22.028C30.3741 22.028 30.1399 21.7956 30.1399 21.508C30.1399 21.2203 30.3741 20.9879 30.6639 20.9879H32.9349C33.2247 20.9879 33.4588 21.2203 33.4588 21.508C33.4588 21.7956 33.2247 22.028 32.9349 22.028H30.6639ZM30.6639 18.1651C30.3741 18.1651 30.1399 17.9327 30.1399 17.645C30.1399 17.3574 30.3741 17.125 30.6639 17.125H32.9349C33.2247 17.125 33.4588 17.3574 33.4588 17.645C33.4588 17.9327 33.2247 18.1651 32.9349 18.1651H30.6639ZM30.6639 14.3021C30.3741 14.3021 30.1399 14.0697 30.1399 13.7821C30.1399 13.4944 30.3741 13.2621 30.6639 13.2621H32.9349C33.2247 13.2621 33.4588 13.4944 33.4588 13.7821C33.4588 14.0697 33.2247 14.3021 32.9349 14.3021H30.6639ZM15.3792 33.6185C15.0894 33.6185 14.8552 33.3861 14.8552 33.0985C14.8552 32.8108 15.0894 32.5784 15.3792 32.5784H28.3157C28.6055 32.5784 28.8397 32.8108 28.8397 33.0985C28.8397 33.3861 28.6055 33.6185 28.3157 33.6185H15.3792ZM16.4991 29.7556C16.2093 29.7556 15.9752 29.5232 15.9752 29.2355C15.9752 28.9479 16.2093 28.7155 16.4991 28.7155H28.3157C28.6055 28.7155 28.8396 28.9479 28.8396 29.2355C28.8396 29.5232 28.6055 29.7556 28.3157 29.7556H16.4991ZM15.3792 14.3021C15.0894 14.3021 14.8552 14.0697 14.8552 13.782C14.8552 13.4944 15.0894 13.262 15.3792 13.262H28.3157C28.6055 13.262 28.8397 13.4944 28.8397 13.782C28.8397 14.0697 28.6055 14.3021 28.3157 14.3021H15.3792ZM18.4738 25.8357C18.1856 25.8341 17.9531 25.6017 17.9547 25.3157C17.9563 25.0297 18.1905 24.7989 18.4787 24.7989L28.3193 24.8541C28.6075 24.8558 28.84 25.0882 28.84 25.3742C28.8383 25.6602 28.6042 25.891 28.316 25.8893L18.4738 25.8357ZM18.4476 22.0281C18.1577 22.0281 17.9236 21.7957 17.9236 21.508C17.9236 21.2204 18.1577 20.988 18.4476 20.988H28.3175C28.6073 20.988 28.8415 21.2204 28.8415 21.508C28.8415 21.7957 28.6073 22.0281 28.3175 22.0281H18.4476ZM16.3845 18.1651C16.0947 18.1651 15.8605 17.9327 15.8605 17.6451C15.8605 17.3574 16.0947 17.125 16.3845 17.125H28.3176C28.6074 17.125 28.8415 17.3574 28.8415 17.6451C28.8415 17.9327 28.6074 18.1651 28.3176 18.1651H16.3845ZM8.45481 30.2251V33.6102H11.5035L11.5052 30.2088C10.4703 30.4461 9.43229 30.4396 8.45481 30.2251ZM11.5052 34.6504H7.93085C7.64104 34.6504 7.4069 34.418 7.4069 34.1304V29.9085C7.23826 29.8418 7.07125 29.7687 6.90752 29.6907L6.06265 31.1436C6.33773 31.4101 6.52931 31.7432 6.62592 32.1008C6.7651 32.6176 6.70615 33.188 6.41634 33.6885L4.08313 37.7009C3.79168 38.1999 3.3234 38.5363 2.80108 38.6744C2.29188 38.8093 1.73025 38.7573 1.23413 38.4842L1.19975 38.4647C0.69709 38.1755 0.358157 37.7107 0.218995 37.1923C0.0830949 36.6869 0.13549 36.1294 0.410564 35.637L0.428575 35.6013L2.76179 31.5905C3.05324 31.0915 3.52152 30.7551 4.04384 30.617C4.40406 30.5211 4.78881 30.5195 5.16052 30.6235L6.00865 29.1658C4.69551 28.2704 3.68361 26.9215 3.23989 25.2736L3.23825 25.2655C2.7454 23.4307 3.04668 21.5683 3.93578 20.0422C4.70204 18.7242 5.9055 17.6565 7.41024 17.0715L7.40697 3.64776H7.4086C7.4086 3.36336 7.64111 3.13096 7.92765 3.12934L29.8108 3.03833C30.099 3.03833 30.3331 3.27072 30.3331 3.55675L30.3396 7.1499H36.2867C36.5765 7.1499 36.8106 7.38229 36.8106 7.66994V38.151C36.8106 38.4386 36.5765 38.671 36.2867 38.671H12.0278C11.738 38.671 11.5038 38.4386 11.5038 38.151V34.6504L11.5052 34.6504ZM29.2964 7.14983L29.2915 4.07672L8.45463 4.16448V16.7578C9.49109 16.5319 10.5275 16.5481 11.5034 16.7724L11.505 11.6307V11.5624L11.5066 11.5559V11.5494L11.5083 11.5429C11.5115 11.525 11.5165 11.5055 11.5214 11.4877C11.5263 11.4714 11.5312 11.4568 11.5377 11.4405V11.4389L11.5427 11.4275L11.5443 11.4226L11.5508 11.4129L11.5541 11.4064L11.5574 11.4015L11.5639 11.3901L11.5672 11.3853L11.5738 11.3739L11.5967 11.3398L11.6081 11.3235L11.6147 11.3138L11.6196 11.3089C11.6343 11.2926 11.6491 11.2764 11.6638 11.2601L15.6737 7.2802L15.6769 7.27858L15.6835 7.27208L15.69 7.26883L15.695 7.26558L15.6966 7.26395L15.6999 7.26233L15.7048 7.25908L15.7064 7.25745L15.7097 7.25583L15.7146 7.25257L15.7195 7.2477L15.7244 7.24445L15.7293 7.23957L15.7343 7.23632H15.7359L15.7457 7.22982H15.7474L15.7916 7.20057L15.7965 7.19895L15.803 7.1957L15.8079 7.19407H15.8096L15.821 7.1892H15.8227L15.8292 7.18757L15.8341 7.18595H15.8358L15.8423 7.18432L15.8472 7.18269H15.8489L15.8554 7.18107L15.8587 7.17944H15.8603L15.8669 7.17782L15.8702 7.17619H15.8734L15.88 7.17457L15.8865 7.17132L15.8931 7.16969L15.8964 7.16807H15.8996L15.9062 7.16644H15.9127L15.9193 7.16482H15.9209L15.9242 7.16319L15.9307 7.16157H15.9373L15.9438 7.15994H16.011L29.2963 7.15832L29.2964 7.14983ZM12.5531 29.8823C14.0267 29.2923 15.2056 28.236 15.9604 26.9375C16.8495 25.4099 17.1507 23.5459 16.6546 21.708C16.1617 19.883 14.9747 18.4253 13.4487 17.541L13.4192 17.5232C13.1409 17.3639 12.851 17.2225 12.5531 17.1023V12.1523H16.0209C16.3108 12.1523 16.5449 11.9199 16.5449 11.6323V8.19026H35.7643V37.6312H12.5532L12.5531 29.8823ZM5.09997 31.7121C4.85273 31.5789 4.57111 31.5529 4.31241 31.6228C4.04879 31.6926 3.81138 31.8616 3.66564 32.1135L1.31931 36.1455C1.18504 36.3909 1.16048 36.6704 1.22925 36.9255C1.29966 37.1872 1.46994 37.4228 1.72374 37.5675L1.74666 37.5805C1.9939 37.7137 2.27551 37.7381 2.53259 37.6699C2.7962 37.6 3.03361 37.431 3.17935 37.1791L5.51257 33.1699C5.65829 32.9196 5.68776 32.6303 5.61572 32.3671C5.54531 32.1054 5.37503 31.8698 5.12123 31.7251L5.09997 31.7121ZM15.4956 8.92479L13.2933 11.1106H15.4956V8.92479Z" stroke="#E6AF2E" stroke-width="0.4" mask="url(#path-1-outside-1_150_76)"/>
</g>
<defs>
<clipPath id="clip0_150_76">
<rect width="37" height="41" fill="white"/>
</clipPath>
</defs>
</svg>
