<svg width="44" height="54" viewBox="0 0 44 54" fill="none" xmlns="http://www.w3.org/2000/svg">
<g clip-path="url(#clip0_150_78)">
<mask id="path-1-outside-1_150_78" maskUnits="userSpaceOnUse" x="-0.583984" y="10.0898" width="44" height="45" fill="black">
<rect fill="white" x="-0.583984" y="10.0898" width="44" height="45"/>
<path d="M8.67365 35.906H14.9419C14.7056 36.5116 14.5739 37.1718 14.5739 37.8615V40.2733C14.5739 41.2847 15.3914 42.1068 16.3971 42.1068H27.1228C28.1285 42.1068 28.946 41.2847 28.946 40.2733V37.8615C28.946 37.1718 28.8143 36.5116 28.578 35.906H34.8463C35.8519 35.906 36.6694 35.0839 36.6694 34.0725V31.6627C36.6694 28.9313 34.6267 26.673 31.9986 26.345C32.0571 26.2819 32.1156 26.2167 32.17 26.1495C32.9227 25.2306 33.3199 23.9416 33.3199 22.4235C33.3199 20.2934 31.5971 18.5608 29.4812 18.5608C28.3689 18.5608 27.3653 19.0402 26.6628 19.8014C25.9519 19.3009 25.1344 18.9835 24.2751 18.8741C24.3337 18.811 24.3922 18.7458 24.4487 18.6785C25.2013 17.7597 25.5986 16.4707 25.5986 14.9525C25.5986 12.8225 23.8757 11.0898 21.7578 11.0898C19.6398 11.0898 17.917 12.8225 17.917 14.9525C17.917 16.4707 18.3142 17.7596 19.0669 18.6785C19.1233 18.7458 19.1798 18.811 19.2404 18.8741C18.3832 18.9813 17.5636 19.2988 16.8528 19.8014C16.1502 19.0381 15.1487 18.5608 14.0344 18.5608C11.9185 18.5608 10.1956 20.2934 10.1956 22.4235C10.1956 23.9416 10.5929 25.2305 11.3456 26.1495C11.402 26.2167 11.4585 26.2819 11.517 26.345C8.88885 26.6709 6.84614 28.9313 6.84614 31.6627V34.0725C6.84614 35.0839 7.66362 35.906 8.66929 35.906H8.67365ZM27.7733 40.2754C27.7733 40.6371 27.4806 40.9315 27.121 40.9315H16.3952C16.0356 40.9315 15.7428 40.6371 15.7428 40.2754V37.8636C15.7428 37.0541 15.9728 36.2992 16.3701 35.6599C16.3806 35.6452 16.3889 35.6326 16.3973 35.6179C17.1374 34.4572 18.4295 33.6855 19.8994 33.6855H21.7393H21.7581H21.7769H23.6168C25.0846 33.6855 26.3788 34.4572 27.1168 35.6179C27.1252 35.6326 27.1357 35.6473 27.1461 35.662C27.5434 36.3013 27.7734 37.0583 27.7734 37.8657V40.2775L27.7733 40.2754ZM19.0879 28.6241C19.0879 28.3928 19.1172 28.1699 19.1715 27.9554C19.1799 27.9323 19.1862 27.9092 19.1904 27.886C19.5103 26.7632 20.5389 25.9389 21.7558 25.9389C22.9726 25.9389 24.0034 26.7632 24.3233 27.886C24.3275 27.9092 24.3338 27.9323 24.3421 27.9533C24.3965 28.1678 24.4258 28.3907 24.4258 28.622C24.4258 31.2714 23.0584 32.4868 21.7788 32.5015H21.7349C20.4553 32.4867 19.088 31.2735 19.088 28.622L19.0879 28.6241ZM35.4942 31.6625V34.0722C35.4942 34.4339 35.2015 34.7283 34.8419 34.7283H27.934C27.0872 33.5507 25.7784 32.7328 24.2751 32.5457C24.3337 32.4826 24.3922 32.4174 24.4487 32.3501C25.2013 31.4312 25.5986 30.1422 25.5986 28.6241C25.5986 28.4264 25.5839 28.2309 25.5547 28.0396C26.184 27.6737 26.8907 27.4802 27.6183 27.4802H29.4582H29.477H29.4958H31.3358C33.6272 27.4802 35.4922 29.3559 35.4922 31.6625L35.4942 31.6625ZM27.2354 20.9725C27.2479 20.9557 27.2584 20.9389 27.2689 20.92C27.7497 20.2072 28.561 19.7383 29.4809 19.7383C30.9508 19.7383 32.1488 20.9431 32.1488 22.4234C32.1488 25.0728 30.7814 26.2882 29.5039 26.3029H29.46C28.1805 26.2882 26.8152 25.0749 26.8152 22.4234C26.8152 21.8893 26.972 21.391 27.2396 20.9726L27.2354 20.9725ZM19.0874 14.9544C19.0874 13.4741 20.2854 12.2693 21.7573 12.2693C23.2293 12.2693 24.4273 13.4741 24.4273 14.9544C24.4273 17.6039 23.0599 18.8192 21.7804 18.8339H21.7364C20.4569 18.8192 19.0895 17.606 19.0895 14.9544H19.0874ZM16.7268 26.1493C17.4795 25.2304 17.8768 23.9414 17.8768 22.4233C17.8768 21.8345 17.745 21.2773 17.5088 20.7769C18.2071 20.2806 19.0393 20.0094 19.8985 20.0094H21.7384H21.7573H21.7761H23.616C24.4753 20.0094 25.3075 20.2806 26.0057 20.7769C25.7716 21.2773 25.6378 21.8345 25.6378 22.4233C25.6378 23.9414 26.035 25.2304 26.7877 26.1493C26.842 26.2166 26.9006 26.2818 26.9591 26.3448C26.3424 26.4226 25.7444 26.6098 25.1903 26.8978C24.5589 25.6341 23.2563 24.7636 21.7572 24.7636C20.256 24.7636 18.9555 25.6341 18.3241 26.8978C17.77 26.6098 17.1721 26.4226 16.5553 26.3448C16.6138 26.2818 16.6725 26.2187 16.7268 26.1493ZM11.368 22.4233C11.368 20.943 12.5639 19.7381 14.0358 19.7381C14.9558 19.7381 15.767 20.207 16.2479 20.9198C16.2584 20.9367 16.2688 20.9556 16.2814 20.9724C16.5511 21.3908 16.7058 21.8892 16.7058 22.4233C16.7058 25.0727 15.3384 26.288 14.0609 26.3027H14.017C12.7375 26.288 11.3701 25.0748 11.3701 22.4233L11.368 22.4233ZM8.0206 31.6625C8.0206 29.3558 9.88561 27.4803 12.1771 27.4803H14.017H14.0358H14.0546H15.8945C16.6222 27.4803 17.3288 27.6737 17.9582 28.0396C17.9289 28.231 17.9143 28.4265 17.9143 28.6241C17.9143 30.1423 18.3115 31.4312 19.0642 32.3501C19.1206 32.4174 19.1771 32.4826 19.2377 32.5457C17.7344 32.7328 16.4256 33.5508 15.5788 34.7283H8.67098C8.31136 34.7283 8.01862 34.4339 8.01862 34.0722V31.6625L8.0206 31.6625ZM41.1806 27.27C39.878 26.9819 38.6089 27.7115 38.3497 28.8953C38.3476 28.9058 38.3455 28.9164 38.3434 28.9269L36.7397 38.6877C35.7654 38.4018 34.7367 38.5384 34.0133 39.0914L28.4976 43.2947C27.2661 44.2347 26.6138 45.3996 26.503 46.8567L26.0012 53.5202C25.9886 53.6843 26.0451 53.8441 26.1559 53.9639C26.2667 54.0838 26.4214 54.1532 26.5845 54.1532H35.1254C35.4307 54.1532 35.6858 53.9156 35.7087 53.6107C35.8906 51.2493 37.5152 49.8763 39.2338 48.4212C40.9106 46.9998 42.646 45.5321 42.717 43.1245L43.0808 30.767V30.7501C43.0808 30.624 43.085 30.4936 43.0892 30.3611C43.1206 29.3056 43.1645 27.7096 41.1803 27.2681L41.1806 27.27ZM41.9187 30.3294C41.9145 30.464 41.9103 30.6048 41.9103 30.7415L41.5486 43.0905C41.4921 44.9703 40.0976 46.152 38.4814 47.5209C36.8526 48.9003 35.0211 50.45 34.6092 52.9776H27.218L27.6738 46.9471C27.7574 45.8305 28.2446 44.9684 29.2064 44.2346L34.7221 40.0313C35.2636 39.617 36.1668 39.617 36.9174 40.0313H36.9195H36.9216C37.1432 40.1532 37.3377 40.3088 37.4966 40.496C38.2284 41.356 37.7621 42.2874 37.1411 42.8257L33.6955 45.8031C33.4509 46.0155 33.4216 46.3877 33.6328 46.6337C33.7478 46.7704 33.9129 46.8398 34.076 46.8398C34.2119 46.8398 34.3478 46.7935 34.4586 46.6968L37.9022 43.7194C39.2173 42.5839 39.4159 40.9439 38.3852 39.7306C38.2242 39.5413 38.0402 39.371 37.8395 39.2238L39.4975 29.1351C39.6229 28.601 40.2753 28.2751 40.9297 28.4181C41.9249 28.6389 41.9521 29.194 41.9208 30.3274L41.9187 30.3294ZM17.0089 46.8587C16.9002 45.4016 16.2478 44.2367 15.0143 43.2967L9.50071 39.0934C8.77519 38.5404 7.74864 38.4038 6.77428 38.6897L5.17063 28.9289C5.16854 28.9184 5.16645 28.9078 5.16436 28.8973C4.9051 27.7135 3.63388 26.9839 2.32922 27.272C0.34716 27.7135 0.393137 29.3095 0.424502 30.365C0.428684 30.4975 0.432866 30.6279 0.432866 30.754V30.7709L0.796666 43.1284C0.867752 45.536 2.60103 47.0037 4.27993 48.4251C5.99855 49.8802 7.62104 51.2532 7.805 53.6146C7.828 53.9216 8.08308 54.1571 8.38831 54.1571H16.9292C17.0923 54.1571 17.247 54.0877 17.3578 53.9678C17.4686 53.848 17.5251 53.6861 17.5125 53.5241L17.0108 46.8606L17.0089 46.8587ZM8.90477 52.9775C8.49288 50.4521 6.66135 48.9004 5.0326 47.5208C3.41642 46.152 2.01976 44.9702 1.96538 43.0904L1.60367 30.7415C1.60367 30.6048 1.59949 30.4639 1.5953 30.3293C1.56185 29.196 1.59112 28.6409 2.58219 28.4201C3.23872 28.275 3.89102 28.603 4.01857 29.135L5.6766 39.2236C5.47588 39.3708 5.29189 39.539 5.12674 39.7304C4.09806 40.9436 4.29877 42.5838 5.61181 43.7171L9.05745 46.6945C9.16826 46.7891 9.30416 46.8375 9.44006 46.8375C9.60523 46.8375 9.76832 46.7681 9.88331 46.6314C10.0945 46.3854 10.0673 46.0132 9.82058 45.8008L6.37494 42.8234C5.75395 42.2872 5.28776 41.3536 6.01324 40.4957C6.17632 40.3065 6.37076 40.1488 6.59446 40.0268H6.59655H6.59864C7.34921 39.6126 8.25244 39.6126 8.794 40.0268L14.3076 44.2301C15.2693 44.964 15.7586 45.8261 15.8422 46.9427L16.298 52.9731H8.90681L8.90477 52.9775Z"/>
</mask>
<path d="M8.67365 35.906H14.9419C14.7056 36.5116 14.5739 37.1718 14.5739 37.8615V40.2733C14.5739 41.2847 15.3914 42.1068 16.3971 42.1068H27.1228C28.1285 42.1068 28.946 41.2847 28.946 40.2733V37.8615C28.946 37.1718 28.8143 36.5116 28.578 35.906H34.8463C35.8519 35.906 36.6694 35.0839 36.6694 34.0725V31.6627C36.6694 28.9313 34.6267 26.673 31.9986 26.345C32.0571 26.2819 32.1156 26.2167 32.17 26.1495C32.9227 25.2306 33.3199 23.9416 33.3199 22.4235C33.3199 20.2934 31.5971 18.5608 29.4812 18.5608C28.3689 18.5608 27.3653 19.0402 26.6628 19.8014C25.9519 19.3009 25.1344 18.9835 24.2751 18.8741C24.3337 18.811 24.3922 18.7458 24.4487 18.6785C25.2013 17.7597 25.5986 16.4707 25.5986 14.9525C25.5986 12.8225 23.8757 11.0898 21.7578 11.0898C19.6398 11.0898 17.917 12.8225 17.917 14.9525C17.917 16.4707 18.3142 17.7596 19.0669 18.6785C19.1233 18.7458 19.1798 18.811 19.2404 18.8741C18.3832 18.9813 17.5636 19.2988 16.8528 19.8014C16.1502 19.0381 15.1487 18.5608 14.0344 18.5608C11.9185 18.5608 10.1956 20.2934 10.1956 22.4235C10.1956 23.9416 10.5929 25.2305 11.3456 26.1495C11.402 26.2167 11.4585 26.2819 11.517 26.345C8.88885 26.6709 6.84614 28.9313 6.84614 31.6627V34.0725C6.84614 35.0839 7.66362 35.906 8.66929 35.906H8.67365ZM27.7733 40.2754C27.7733 40.6371 27.4806 40.9315 27.121 40.9315H16.3952C16.0356 40.9315 15.7428 40.6371 15.7428 40.2754V37.8636C15.7428 37.0541 15.9728 36.2992 16.3701 35.6599C16.3806 35.6452 16.3889 35.6326 16.3973 35.6179C17.1374 34.4572 18.4295 33.6855 19.8994 33.6855H21.7393H21.7581H21.7769H23.6168C25.0846 33.6855 26.3788 34.4572 27.1168 35.6179C27.1252 35.6326 27.1357 35.6473 27.1461 35.662C27.5434 36.3013 27.7734 37.0583 27.7734 37.8657V40.2775L27.7733 40.2754ZM19.0879 28.6241C19.0879 28.3928 19.1172 28.1699 19.1715 27.9554C19.1799 27.9323 19.1862 27.9092 19.1904 27.886C19.5103 26.7632 20.5389 25.9389 21.7558 25.9389C22.9726 25.9389 24.0034 26.7632 24.3233 27.886C24.3275 27.9092 24.3338 27.9323 24.3421 27.9533C24.3965 28.1678 24.4258 28.3907 24.4258 28.622C24.4258 31.2714 23.0584 32.4868 21.7788 32.5015H21.7349C20.4553 32.4867 19.088 31.2735 19.088 28.622L19.0879 28.6241ZM35.4942 31.6625V34.0722C35.4942 34.4339 35.2015 34.7283 34.8419 34.7283H27.934C27.0872 33.5507 25.7784 32.7328 24.2751 32.5457C24.3337 32.4826 24.3922 32.4174 24.4487 32.3501C25.2013 31.4312 25.5986 30.1422 25.5986 28.6241C25.5986 28.4264 25.5839 28.2309 25.5547 28.0396C26.184 27.6737 26.8907 27.4802 27.6183 27.4802H29.4582H29.477H29.4958H31.3358C33.6272 27.4802 35.4922 29.3559 35.4922 31.6625L35.4942 31.6625ZM27.2354 20.9725C27.2479 20.9557 27.2584 20.9389 27.2689 20.92C27.7497 20.2072 28.561 19.7383 29.4809 19.7383C30.9508 19.7383 32.1488 20.9431 32.1488 22.4234C32.1488 25.0728 30.7814 26.2882 29.5039 26.3029H29.46C28.1805 26.2882 26.8152 25.0749 26.8152 22.4234C26.8152 21.8893 26.972 21.391 27.2396 20.9726L27.2354 20.9725ZM19.0874 14.9544C19.0874 13.4741 20.2854 12.2693 21.7573 12.2693C23.2293 12.2693 24.4273 13.4741 24.4273 14.9544C24.4273 17.6039 23.0599 18.8192 21.7804 18.8339H21.7364C20.4569 18.8192 19.0895 17.606 19.0895 14.9544H19.0874ZM16.7268 26.1493C17.4795 25.2304 17.8768 23.9414 17.8768 22.4233C17.8768 21.8345 17.745 21.2773 17.5088 20.7769C18.2071 20.2806 19.0393 20.0094 19.8985 20.0094H21.7384H21.7573H21.7761H23.616C24.4753 20.0094 25.3075 20.2806 26.0057 20.7769C25.7716 21.2773 25.6378 21.8345 25.6378 22.4233C25.6378 23.9414 26.035 25.2304 26.7877 26.1493C26.842 26.2166 26.9006 26.2818 26.9591 26.3448C26.3424 26.4226 25.7444 26.6098 25.1903 26.8978C24.5589 25.6341 23.2563 24.7636 21.7572 24.7636C20.256 24.7636 18.9555 25.6341 18.3241 26.8978C17.77 26.6098 17.1721 26.4226 16.5553 26.3448C16.6138 26.2818 16.6725 26.2187 16.7268 26.1493ZM11.368 22.4233C11.368 20.943 12.5639 19.7381 14.0358 19.7381C14.9558 19.7381 15.767 20.207 16.2479 20.9198C16.2584 20.9367 16.2688 20.9556 16.2814 20.9724C16.5511 21.3908 16.7058 21.8892 16.7058 22.4233C16.7058 25.0727 15.3384 26.288 14.0609 26.3027H14.017C12.7375 26.288 11.3701 25.0748 11.3701 22.4233L11.368 22.4233ZM8.0206 31.6625C8.0206 29.3558 9.88561 27.4803 12.1771 27.4803H14.017H14.0358H14.0546H15.8945C16.6222 27.4803 17.3288 27.6737 17.9582 28.0396C17.9289 28.231 17.9143 28.4265 17.9143 28.6241C17.9143 30.1423 18.3115 31.4312 19.0642 32.3501C19.1206 32.4174 19.1771 32.4826 19.2377 32.5457C17.7344 32.7328 16.4256 33.5508 15.5788 34.7283H8.67098C8.31136 34.7283 8.01862 34.4339 8.01862 34.0722V31.6625L8.0206 31.6625ZM41.1806 27.27C39.878 26.9819 38.6089 27.7115 38.3497 28.8953C38.3476 28.9058 38.3455 28.9164 38.3434 28.9269L36.7397 38.6877C35.7654 38.4018 34.7367 38.5384 34.0133 39.0914L28.4976 43.2947C27.2661 44.2347 26.6138 45.3996 26.503 46.8567L26.0012 53.5202C25.9886 53.6843 26.0451 53.8441 26.1559 53.9639C26.2667 54.0838 26.4214 54.1532 26.5845 54.1532H35.1254C35.4307 54.1532 35.6858 53.9156 35.7087 53.6107C35.8906 51.2493 37.5152 49.8763 39.2338 48.4212C40.9106 46.9998 42.646 45.5321 42.717 43.1245L43.0808 30.767V30.7501C43.0808 30.624 43.085 30.4936 43.0892 30.3611C43.1206 29.3056 43.1645 27.7096 41.1803 27.2681L41.1806 27.27ZM41.9187 30.3294C41.9145 30.464 41.9103 30.6048 41.9103 30.7415L41.5486 43.0905C41.4921 44.9703 40.0976 46.152 38.4814 47.5209C36.8526 48.9003 35.0211 50.45 34.6092 52.9776H27.218L27.6738 46.9471C27.7574 45.8305 28.2446 44.9684 29.2064 44.2346L34.7221 40.0313C35.2636 39.617 36.1668 39.617 36.9174 40.0313H36.9195H36.9216C37.1432 40.1532 37.3377 40.3088 37.4966 40.496C38.2284 41.356 37.7621 42.2874 37.1411 42.8257L33.6955 45.8031C33.4509 46.0155 33.4216 46.3877 33.6328 46.6337C33.7478 46.7704 33.9129 46.8398 34.076 46.8398C34.2119 46.8398 34.3478 46.7935 34.4586 46.6968L37.9022 43.7194C39.2173 42.5839 39.4159 40.9439 38.3852 39.7306C38.2242 39.5413 38.0402 39.371 37.8395 39.2238L39.4975 29.1351C39.6229 28.601 40.2753 28.2751 40.9297 28.4181C41.9249 28.6389 41.9521 29.194 41.9208 30.3274L41.9187 30.3294ZM17.0089 46.8587C16.9002 45.4016 16.2478 44.2367 15.0143 43.2967L9.50071 39.0934C8.77519 38.5404 7.74864 38.4038 6.77428 38.6897L5.17063 28.9289C5.16854 28.9184 5.16645 28.9078 5.16436 28.8973C4.9051 27.7135 3.63388 26.9839 2.32922 27.272C0.34716 27.7135 0.393137 29.3095 0.424502 30.365C0.428684 30.4975 0.432866 30.6279 0.432866 30.754V30.7709L0.796666 43.1284C0.867752 45.536 2.60103 47.0037 4.27993 48.4251C5.99855 49.8802 7.62104 51.2532 7.805 53.6146C7.828 53.9216 8.08308 54.1571 8.38831 54.1571H16.9292C17.0923 54.1571 17.247 54.0877 17.3578 53.9678C17.4686 53.848 17.5251 53.6861 17.5125 53.5241L17.0108 46.8606L17.0089 46.8587ZM8.90477 52.9775C8.49288 50.4521 6.66135 48.9004 5.0326 47.5208C3.41642 46.152 2.01976 44.9702 1.96538 43.0904L1.60367 30.7415C1.60367 30.6048 1.59949 30.4639 1.5953 30.3293C1.56185 29.196 1.59112 28.6409 2.58219 28.4201C3.23872 28.275 3.89102 28.603 4.01857 29.135L5.6766 39.2236C5.47588 39.3708 5.29189 39.539 5.12674 39.7304C4.09806 40.9436 4.29877 42.5838 5.61181 43.7171L9.05745 46.6945C9.16826 46.7891 9.30416 46.8375 9.44006 46.8375C9.60523 46.8375 9.76832 46.7681 9.88331 46.6314C10.0945 46.3854 10.0673 46.0132 9.82058 45.8008L6.37494 42.8234C5.75395 42.2872 5.28776 41.3536 6.01324 40.4957C6.17632 40.3065 6.37076 40.1488 6.59446 40.0268H6.59655H6.59864C7.34921 39.6126 8.25244 39.6126 8.794 40.0268L14.3076 44.2301C15.2693 44.964 15.7586 45.8261 15.8422 46.9427L16.298 52.9731H8.90681L8.90477 52.9775Z" fill="#E6AF2E"/>
<path d="M8.67365 35.906H14.9419C14.7056 36.5116 14.5739 37.1718 14.5739 37.8615V40.2733C14.5739 41.2847 15.3914 42.1068 16.3971 42.1068H27.1228C28.1285 42.1068 28.946 41.2847 28.946 40.2733V37.8615C28.946 37.1718 28.8143 36.5116 28.578 35.906H34.8463C35.8519 35.906 36.6694 35.0839 36.6694 34.0725V31.6627C36.6694 28.9313 34.6267 26.673 31.9986 26.345C32.0571 26.2819 32.1156 26.2167 32.17 26.1495C32.9227 25.2306 33.3199 23.9416 33.3199 22.4235C33.3199 20.2934 31.5971 18.5608 29.4812 18.5608C28.3689 18.5608 27.3653 19.0402 26.6628 19.8014C25.9519 19.3009 25.1344 18.9835 24.2751 18.8741C24.3337 18.811 24.3922 18.7458 24.4487 18.6785C25.2013 17.7597 25.5986 16.4707 25.5986 14.9525C25.5986 12.8225 23.8757 11.0898 21.7578 11.0898C19.6398 11.0898 17.917 12.8225 17.917 14.9525C17.917 16.4707 18.3142 17.7596 19.0669 18.6785C19.1233 18.7458 19.1798 18.811 19.2404 18.8741C18.3832 18.9813 17.5636 19.2988 16.8528 19.8014C16.1502 19.0381 15.1487 18.5608 14.0344 18.5608C11.9185 18.5608 10.1956 20.2934 10.1956 22.4235C10.1956 23.9416 10.5929 25.2305 11.3456 26.1495C11.402 26.2167 11.4585 26.2819 11.517 26.345C8.88885 26.6709 6.84614 28.9313 6.84614 31.6627V34.0725C6.84614 35.0839 7.66362 35.906 8.66929 35.906H8.67365ZM27.7733 40.2754C27.7733 40.6371 27.4806 40.9315 27.121 40.9315H16.3952C16.0356 40.9315 15.7428 40.6371 15.7428 40.2754V37.8636C15.7428 37.0541 15.9728 36.2992 16.3701 35.6599C16.3806 35.6452 16.3889 35.6326 16.3973 35.6179C17.1374 34.4572 18.4295 33.6855 19.8994 33.6855H21.7393H21.7581H21.7769H23.6168C25.0846 33.6855 26.3788 34.4572 27.1168 35.6179C27.1252 35.6326 27.1357 35.6473 27.1461 35.662C27.5434 36.3013 27.7734 37.0583 27.7734 37.8657V40.2775L27.7733 40.2754ZM19.0879 28.6241C19.0879 28.3928 19.1172 28.1699 19.1715 27.9554C19.1799 27.9323 19.1862 27.9092 19.1904 27.886C19.5103 26.7632 20.5389 25.9389 21.7558 25.9389C22.9726 25.9389 24.0034 26.7632 24.3233 27.886C24.3275 27.9092 24.3338 27.9323 24.3421 27.9533C24.3965 28.1678 24.4258 28.3907 24.4258 28.622C24.4258 31.2714 23.0584 32.4868 21.7788 32.5015H21.7349C20.4553 32.4867 19.088 31.2735 19.088 28.622L19.0879 28.6241ZM35.4942 31.6625V34.0722C35.4942 34.4339 35.2015 34.7283 34.8419 34.7283H27.934C27.0872 33.5507 25.7784 32.7328 24.2751 32.5457C24.3337 32.4826 24.3922 32.4174 24.4487 32.3501C25.2013 31.4312 25.5986 30.1422 25.5986 28.6241C25.5986 28.4264 25.5839 28.2309 25.5547 28.0396C26.184 27.6737 26.8907 27.4802 27.6183 27.4802H29.4582H29.477H29.4958H31.3358C33.6272 27.4802 35.4922 29.3559 35.4922 31.6625L35.4942 31.6625ZM27.2354 20.9725C27.2479 20.9557 27.2584 20.9389 27.2689 20.92C27.7497 20.2072 28.561 19.7383 29.4809 19.7383C30.9508 19.7383 32.1488 20.9431 32.1488 22.4234C32.1488 25.0728 30.7814 26.2882 29.5039 26.3029H29.46C28.1805 26.2882 26.8152 25.0749 26.8152 22.4234C26.8152 21.8893 26.972 21.391 27.2396 20.9726L27.2354 20.9725ZM19.0874 14.9544C19.0874 13.4741 20.2854 12.2693 21.7573 12.2693C23.2293 12.2693 24.4273 13.4741 24.4273 14.9544C24.4273 17.6039 23.0599 18.8192 21.7804 18.8339H21.7364C20.4569 18.8192 19.0895 17.606 19.0895 14.9544H19.0874ZM16.7268 26.1493C17.4795 25.2304 17.8768 23.9414 17.8768 22.4233C17.8768 21.8345 17.745 21.2773 17.5088 20.7769C18.2071 20.2806 19.0393 20.0094 19.8985 20.0094H21.7384H21.7573H21.7761H23.616C24.4753 20.0094 25.3075 20.2806 26.0057 20.7769C25.7716 21.2773 25.6378 21.8345 25.6378 22.4233C25.6378 23.9414 26.035 25.2304 26.7877 26.1493C26.842 26.2166 26.9006 26.2818 26.9591 26.3448C26.3424 26.4226 25.7444 26.6098 25.1903 26.8978C24.5589 25.6341 23.2563 24.7636 21.7572 24.7636C20.256 24.7636 18.9555 25.6341 18.3241 26.8978C17.77 26.6098 17.1721 26.4226 16.5553 26.3448C16.6138 26.2818 16.6725 26.2187 16.7268 26.1493ZM11.368 22.4233C11.368 20.943 12.5639 19.7381 14.0358 19.7381C14.9558 19.7381 15.767 20.207 16.2479 20.9198C16.2584 20.9367 16.2688 20.9556 16.2814 20.9724C16.5511 21.3908 16.7058 21.8892 16.7058 22.4233C16.7058 25.0727 15.3384 26.288 14.0609 26.3027H14.017C12.7375 26.288 11.3701 25.0748 11.3701 22.4233L11.368 22.4233ZM8.0206 31.6625C8.0206 29.3558 9.88561 27.4803 12.1771 27.4803H14.017H14.0358H14.0546H15.8945C16.6222 27.4803 17.3288 27.6737 17.9582 28.0396C17.9289 28.231 17.9143 28.4265 17.9143 28.6241C17.9143 30.1423 18.3115 31.4312 19.0642 32.3501C19.1206 32.4174 19.1771 32.4826 19.2377 32.5457C17.7344 32.7328 16.4256 33.5508 15.5788 34.7283H8.67098C8.31136 34.7283 8.01862 34.4339 8.01862 34.0722V31.6625L8.0206 31.6625ZM41.1806 27.27C39.878 26.9819 38.6089 27.7115 38.3497 28.8953C38.3476 28.9058 38.3455 28.9164 38.3434 28.9269L36.7397 38.6877C35.7654 38.4018 34.7367 38.5384 34.0133 39.0914L28.4976 43.2947C27.2661 44.2347 26.6138 45.3996 26.503 46.8567L26.0012 53.5202C25.9886 53.6843 26.0451 53.8441 26.1559 53.9639C26.2667 54.0838 26.4214 54.1532 26.5845 54.1532H35.1254C35.4307 54.1532 35.6858 53.9156 35.7087 53.6107C35.8906 51.2493 37.5152 49.8763 39.2338 48.4212C40.9106 46.9998 42.646 45.5321 42.717 43.1245L43.0808 30.767V30.7501C43.0808 30.624 43.085 30.4936 43.0892 30.3611C43.1206 29.3056 43.1645 27.7096 41.1803 27.2681L41.1806 27.27ZM41.9187 30.3294C41.9145 30.464 41.9103 30.6048 41.9103 30.7415L41.5486 43.0905C41.4921 44.9703 40.0976 46.152 38.4814 47.5209C36.8526 48.9003 35.0211 50.45 34.6092 52.9776H27.218L27.6738 46.9471C27.7574 45.8305 28.2446 44.9684 29.2064 44.2346L34.7221 40.0313C35.2636 39.617 36.1668 39.617 36.9174 40.0313H36.9195H36.9216C37.1432 40.1532 37.3377 40.3088 37.4966 40.496C38.2284 41.356 37.7621 42.2874 37.1411 42.8257L33.6955 45.8031C33.4509 46.0155 33.4216 46.3877 33.6328 46.6337C33.7478 46.7704 33.9129 46.8398 34.076 46.8398C34.2119 46.8398 34.3478 46.7935 34.4586 46.6968L37.9022 43.7194C39.2173 42.5839 39.4159 40.9439 38.3852 39.7306C38.2242 39.5413 38.0402 39.371 37.8395 39.2238L39.4975 29.1351C39.6229 28.601 40.2753 28.2751 40.9297 28.4181C41.9249 28.6389 41.9521 29.194 41.9208 30.3274L41.9187 30.3294ZM17.0089 46.8587C16.9002 45.4016 16.2478 44.2367 15.0143 43.2967L9.50071 39.0934C8.77519 38.5404 7.74864 38.4038 6.77428 38.6897L5.17063 28.9289C5.16854 28.9184 5.16645 28.9078 5.16436 28.8973C4.9051 27.7135 3.63388 26.9839 2.32922 27.272C0.34716 27.7135 0.393137 29.3095 0.424502 30.365C0.428684 30.4975 0.432866 30.6279 0.432866 30.754V30.7709L0.796666 43.1284C0.867752 45.536 2.60103 47.0037 4.27993 48.4251C5.99855 49.8802 7.62104 51.2532 7.805 53.6146C7.828 53.9216 8.08308 54.1571 8.38831 54.1571H16.9292C17.0923 54.1571 17.247 54.0877 17.3578 53.9678C17.4686 53.848 17.5251 53.6861 17.5125 53.5241L17.0108 46.8606L17.0089 46.8587ZM8.90477 52.9775C8.49288 50.4521 6.66135 48.9004 5.0326 47.5208C3.41642 46.152 2.01976 44.9702 1.96538 43.0904L1.60367 30.7415C1.60367 30.6048 1.59949 30.4639 1.5953 30.3293C1.56185 29.196 1.59112 28.6409 2.58219 28.4201C3.23872 28.275 3.89102 28.603 4.01857 29.135L5.6766 39.2236C5.47588 39.3708 5.29189 39.539 5.12674 39.7304C4.09806 40.9436 4.29877 42.5838 5.61181 43.7171L9.05745 46.6945C9.16826 46.7891 9.30416 46.8375 9.44006 46.8375C9.60523 46.8375 9.76832 46.7681 9.88331 46.6314C10.0945 46.3854 10.0673 46.0132 9.82058 45.8008L6.37494 42.8234C5.75395 42.2872 5.28776 41.3536 6.01324 40.4957C6.17632 40.3065 6.37076 40.1488 6.59446 40.0268H6.59655H6.59864C7.34921 39.6126 8.25244 39.6126 8.794 40.0268L14.3076 44.2301C15.2693 44.964 15.7586 45.8261 15.8422 46.9427L16.298 52.9731H8.90681L8.90477 52.9775Z" stroke="#E6AF2E" stroke-width="0.2" mask="url(#path-1-outside-1_150_78)"/>
</g>
<defs>
<clipPath id="clip0_150_78">
<rect width="43" height="53.5111" fill="white" transform="translate(0.424561 0.48877)"/>
</clipPath>
</defs>
</svg>
