<svg width="45" height="39" viewBox="0 0 45 39" fill="none" xmlns="http://www.w3.org/2000/svg">
<g clip-path="url(#clip0_150_71)">
<path d="M22.5009 0.195801L1.44341 8.16364C1.35168 8.19813 1.26765 8.25051 1.19615 8.31777C1.12465 8.38503 1.06709 8.46583 1.02677 8.55554C0.986464 8.64524 0.964202 8.74208 0.96127 8.84046C0.958339 8.93885 0.974795 9.03685 1.00969 9.12882C1.07933 9.31335 1.21883 9.46266 1.3977 9.54408C1.57656 9.6255 1.78023 9.63241 1.96415 9.5633L4.62879 8.55438V37.9982C4.62804 38.1962 4.70555 38.3864 4.84428 38.5269C4.98301 38.6674 5.17159 38.7468 5.36856 38.7476H39.6274C39.7254 38.748 39.8225 38.7289 39.9131 38.6914C40.0038 38.6538 40.0861 38.5986 40.1554 38.529C40.2247 38.4593 40.2796 38.3766 40.317 38.2855C40.3543 38.1944 40.3733 38.0967 40.373 37.9982V8.55584L43.0318 9.5633C43.1231 9.59819 43.2204 9.61463 43.3181 9.61167C43.4157 9.60871 43.5118 9.5864 43.6009 9.54604C43.69 9.50568 43.7702 9.44805 43.8371 9.37646C43.904 9.30486 43.9561 9.22071 43.9906 9.12882C44.0255 9.03694 44.0421 8.93903 44.0392 8.84071C44.0364 8.74239 44.0143 8.64561 43.9741 8.55592C43.9339 8.46622 43.8765 8.3854 43.8052 8.31808C43.7338 8.25076 43.6499 8.19828 43.5583 8.16364L22.5009 0.195801ZM22.5009 1.78791L38.8876 7.99452V37.2532H35.3077V11.0519C35.308 10.9534 35.289 10.8558 35.2517 10.7647C35.2143 10.6736 35.1594 10.5908 35.0901 10.5212C35.0208 10.4515 34.9385 10.3963 34.8479 10.3588C34.7572 10.3212 34.6601 10.3021 34.5621 10.3025H10.4338C10.2369 10.3033 10.0483 10.3827 9.90956 10.5232C9.77083 10.6638 9.69331 10.8539 9.69407 11.0519V37.2532H6.11414V7.9916L22.5009 1.78791ZM11.1794 11.7955H33.8209V14.5233H11.1794V11.7955ZM11.1794 16.0163H33.8209V18.7442H11.1794V16.0163ZM11.1794 20.2371H33.8209V37.2532H30.138V31.0378C30.1383 30.9397 30.1194 30.8424 30.0824 30.7516C30.0453 30.6608 29.9908 30.5783 29.922 30.5087C29.8531 30.4391 29.7713 30.3838 29.6812 30.346C29.591 30.3082 29.4944 30.2887 29.3967 30.2884H26.6886V24.0731C26.6882 23.8759 26.6101 23.6868 26.4715 23.5472C26.3329 23.4076 26.145 23.3289 25.9488 23.3281H19.0515C18.9538 23.3277 18.8571 23.3467 18.7667 23.3839C18.6764 23.4212 18.5942 23.476 18.525 23.5452C18.4558 23.6144 18.4008 23.6966 18.3632 23.7872C18.3256 23.8778 18.3061 23.9749 18.3059 24.0731V30.2884H15.6036C15.5055 30.2881 15.4084 30.3072 15.3178 30.3447C15.2272 30.3823 15.1448 30.4374 15.0755 30.5071C15.0062 30.5768 14.9513 30.6595 14.914 30.7506C14.8766 30.8417 14.8576 30.9393 14.858 31.0378V37.2532H11.1794V20.2371ZM19.7927 24.8225H25.2032V30.2884H22.5009H19.7927V24.8225ZM16.3433 31.7814H21.7553V37.2532H16.3433V31.7814ZM23.2407 31.7814H25.9488H28.6512V37.2532H23.2407V31.7814Z" fill="#E6AF2E"/>
</g>
<defs>
<clipPath id="clip0_150_71">
<rect width="43.2656" height="39" fill="white" transform="translate(0.867432)"/>
</clipPath>
</defs>
</svg>
